<?xml version="1.0" encoding="UTF-8" standalone="no"?>
<!DOCTYPE svg PUBLIC "-//W3C//DTD SVG 1.1//EN"
 "http://www.w3.org/Graphics/SVG/1.1/DTD/svg11.dtd">
<!-- Generated by graphviz version 2.43.0 (0)
 -->
<!-- Title: %3 Pages: 1 -->
<svg width="224pt" height="624pt"
 viewBox="0.00 0.00 224.00 624.00" xmlns="http://www.w3.org/2000/svg" xmlns:xlink="http://www.w3.org/1999/xlink">
<g id="graph0" class="graph" transform="scale(1 1) rotate(0) translate(4 620)">
<title>%3</title>
<polygon fill="white" stroke="transparent" points="-4,4 -4,-620 220,-620 220,4 -4,4"/>
<!-- 0 -->
<g id="node1" class="node">
<title>0</title>
<path fill="#ffb6b6" stroke="black" d="M208.67,-616C208.67,-616 7.33,-616 7.33,-616 3.67,-616 0,-612.33 0,-608.67 0,-608.67 0,-601.33 0,-601.33 0,-597.67 3.67,-594 7.33,-594 7.33,-594 208.67,-594 208.67,-594 212.33,-594 216,-597.67 216,-601.33 216,-601.33 216,-608.67 216,-608.67 216,-612.33 212.33,-616 208.67,-616"/>
<text text-anchor="middle" x="108" y="-602.2" font-family="Courier,monospace" font-size="11.00"> 0 │ [START] &#160;&#160;&#160;&#160;&#160;│ MASKED</text>
</g>
<!-- 1 -->
<g id="node2" class="node">
<title>1</title>
<path fill="#ffb6b6" stroke="black" d="M208.67,-583C208.67,-583 7.33,-583 7.33,-583 3.67,-583 0,-579.33 0,-575.67 0,-575.67 0,-568.33 0,-568.33 0,-564.67 3.67,-561 7.33,-561 7.33,-561 208.67,-561 208.67,-561 212.33,-561 216,-564.67 216,-568.33 216,-568.33 216,-575.67 216,-575.67 216,-579.33 212.33,-583 208.67,-583"/>
<text text-anchor="middle" x="108" y="-569.2" font-family="Courier,monospace" font-size="11.00"> 1 │ user &#160;&#160;&#160;&#160;&#160;&#160;&#160;&#160;│ MASKED</text>
</g>
<!-- 0&#45;&gt;1 -->
<g id="edge1" class="edge">
<title>0&#45;&gt;1</title>
<path fill="none" stroke="black" d="M108,-593.85C108,-591.84 108,-589.69 108,-587.56"/>
<polygon fill="black" stroke="black" points="109.4,-587.28 108,-583.28 106.6,-587.28 109.4,-587.28"/>
</g>
<!-- 2 -->
<g id="node3" class="node">
<title>2</title>
<path fill="#ffb6b6" stroke="black" d="M208.67,-550C208.67,-550 7.33,-550 7.33,-550 3.67,-550 0,-546.33 0,-542.67 0,-542.67 0,-535.33 0,-535.33 0,-531.67 3.67,-528 7.33,-528 7.33,-528 208.67,-528 208.67,-528 212.33,-528 216,-531.67 216,-535.33 216,-535.33 216,-542.67 216,-542.67 216,-546.33 212.33,-550 208.67,-550"/>
<text text-anchor="middle" x="108" y="-536.2" font-family="Courier,monospace" font-size="11.00"> 2 │ ↵ &#160;&#160;&#160;&#160;&#160;&#160;&#160;&#160;&#160;&#160;&#160;│ MASKED</text>
</g>
<!-- 1&#45;&gt;2 -->
<g id="edge2" class="edge">
<title>1&#45;&gt;2</title>
<path fill="none" stroke="black" d="M108,-560.85C108,-558.84 108,-556.69 108,-554.56"/>
<polygon fill="black" stroke="black" points="109.4,-554.28 108,-550.28 106.6,-554.28 109.4,-554.28"/>
</g>
<!-- 3 -->
<g id="node4" class="node">
<title>3</title>
<path fill="#ffb6b6" stroke="black" d="M208.67,-517C208.67,-517 7.33,-517 7.33,-517 3.67,-517 0,-513.33 0,-509.67 0,-509.67 0,-502.33 0,-502.33 0,-498.67 3.67,-495 7.33,-495 7.33,-495 208.67,-495 208.67,-495 212.33,-495 216,-498.67 216,-502.33 216,-502.33 216,-509.67 216,-509.67 216,-513.33 212.33,-517 208.67,-517"/>
<text text-anchor="middle" x="108" y="-503.2" font-family="Courier,monospace" font-size="11.00"> 3 │ Hi &#160;&#160;&#160;&#160;&#160;&#160;&#160;&#160;&#160;&#160;│ MASKED</text>
</g>
<!-- 2&#45;&gt;3 -->
<g id="edge3" class="edge">
<title>2&#45;&gt;3</title>
<path fill="none" stroke="black" d="M108,-527.85C108,-525.84 108,-523.69 108,-521.56"/>
<polygon fill="black" stroke="black" points="109.4,-521.28 108,-517.28 106.6,-521.28 109.4,-521.28"/>
</g>
<!-- 4 -->
<g id="node5" class="node">
<title>4</title>
<path fill="#ffb6b6" stroke="black" d="M208.67,-484C208.67,-484 7.33,-484 7.33,-484 3.67,-484 0,-480.33 0,-476.67 0,-476.67 0,-469.33 0,-469.33 0,-465.67 3.67,-462 7.33,-462 7.33,-462 208.67,-462 208.67,-462 212.33,-462 216,-465.67 216,-469.33 216,-469.33 216,-476.67 216,-476.67 216,-480.33 212.33,-484 208.67,-484"/>
<text text-anchor="middle" x="108" y="-470.2" font-family="Courier,monospace" font-size="11.00"> 4 │ [END] &#160;&#160;&#160;&#160;&#160;&#160;&#160;│ MASKED</text>
</g>
<!-- 3&#45;&gt;4 -->
<g id="edge4" class="edge">
<title>3&#45;&gt;4</title>
<path fill="none" stroke="black" d="M108,-494.85C108,-492.84 108,-490.69 108,-488.56"/>
<polygon fill="black" stroke="black" points="109.4,-488.28 108,-484.28 106.6,-488.28 109.4,-488.28"/>
</g>
<!-- 5 -->
<g id="node6" class="node">
<title>5</title>
<path fill="#ffb6b6" stroke="black" d="M208.67,-451C208.67,-451 7.33,-451 7.33,-451 3.67,-451 0,-447.33 0,-443.67 0,-443.67 0,-436.33 0,-436.33 0,-432.67 3.67,-429 7.33,-429 7.33,-429 208.67,-429 208.67,-429 212.33,-429 216,-432.67 216,-436.33 216,-436.33 216,-443.67 216,-443.67 216,-447.33 212.33,-451 208.67,-451"/>
<text text-anchor="middle" x="108" y="-437.2" font-family="Courier,monospace" font-size="11.00"> 5 │ ↵ &#160;&#160;&#160;&#160;&#160;&#160;&#160;&#160;&#160;&#160;&#160;│ MASKED</text>
</g>
<!-- 4&#45;&gt;5 -->
<g id="edge5" class="edge">
<title>4&#45;&gt;5</title>
<path fill="none" stroke="black" d="M108,-461.85C108,-459.84 108,-457.69 108,-455.56"/>
<polygon fill="black" stroke="black" points="109.4,-455.28 108,-451.28 106.6,-455.28 109.4,-455.28"/>
</g>
<!-- 6 -->
<g id="node7" class="node">
<title>6</title>
<path fill="#ffb6b6" stroke="black" d="M208.67,-418C208.67,-418 7.33,-418 7.33,-418 3.67,-418 0,-414.33 0,-410.67 0,-410.67 0,-403.33 0,-403.33 0,-399.67 3.67,-396 7.33,-396 7.33,-396 208.67,-396 208.67,-396 212.33,-396 216,-399.67 216,-403.33 216,-403.33 216,-410.67 216,-410.67 216,-414.33 212.33,-418 208.67,-418"/>
<text text-anchor="middle" x="108" y="-404.2" font-family="Courier,monospace" font-size="11.00"> 6 │ [START] &#160;&#160;&#160;&#160;&#160;│ MASKED</text>
</g>
<!-- 5&#45;&gt;6 -->
<g id="edge6" class="edge">
<title>5&#45;&gt;6</title>
<path fill="none" stroke="black" d="M108,-428.85C108,-426.84 108,-424.69 108,-422.56"/>
<polygon fill="black" stroke="black" points="109.4,-422.28 108,-418.28 106.6,-422.28 109.4,-422.28"/>
</g>
<!-- 7 -->
<g id="node8" class="node">
<title>7</title>
<path fill="#ffb6b6" stroke="black" d="M208.67,-385C208.67,-385 7.33,-385 7.33,-385 3.67,-385 0,-381.33 0,-377.67 0,-377.67 0,-370.33 0,-370.33 0,-366.67 3.67,-363 7.33,-363 7.33,-363 208.67,-363 208.67,-363 212.33,-363 216,-366.67 216,-370.33 216,-370.33 216,-377.67 216,-377.67 216,-381.33 212.33,-385 208.67,-385"/>
<text text-anchor="middle" x="108" y="-371.2" font-family="Courier,monospace" font-size="11.00"> 7 │ ass &#160;&#160;&#160;&#160;&#160;&#160;&#160;&#160;&#160;│ MASKED</text>
</g>
<!-- 6&#45;&gt;7 -->
<g id="edge7" class="edge">
<title>6&#45;&gt;7</title>
<path fill="none" stroke="black" d="M108,-395.85C108,-393.84 108,-391.69 108,-389.56"/>
<polygon fill="black" stroke="black" points="109.4,-389.28 108,-385.28 106.6,-389.28 109.4,-389.28"/>
</g>
<!-- 8 -->
<g id="node9" class="node">
<title>8</title>
<path fill="#ffb6b6" stroke="black" d="M208.67,-352C208.67,-352 7.33,-352 7.33,-352 3.67,-352 0,-348.33 0,-344.67 0,-344.67 0,-337.33 0,-337.33 0,-333.67 3.67,-330 7.33,-330 7.33,-330 208.67,-330 208.67,-330 212.33,-330 216,-333.67 216,-337.33 216,-337.33 216,-344.67 216,-344.67 216,-348.33 212.33,-352 208.67,-352"/>
<text text-anchor="middle" x="108" y="-338.2" font-family="Courier,monospace" font-size="11.00"> 8 │ istant &#160;&#160;&#160;&#160;&#160;&#160;│ MASKED</text>
</g>
<!-- 7&#45;&gt;8 -->
<g id="edge8" class="edge">
<title>7&#45;&gt;8</title>
<path fill="none" stroke="black" d="M108,-362.85C108,-360.84 108,-358.69 108,-356.56"/>
<polygon fill="black" stroke="black" points="109.4,-356.28 108,-352.28 106.6,-356.28 109.4,-356.28"/>
</g>
<!-- 9 -->
<g id="node10" class="node">
<title>9</title>
<path fill="#ffb6b6" stroke="black" d="M208.67,-319C208.67,-319 7.33,-319 7.33,-319 3.67,-319 0,-315.33 0,-311.67 0,-311.67 0,-304.33 0,-304.33 0,-300.67 3.67,-297 7.33,-297 7.33,-297 208.67,-297 208.67,-297 212.33,-297 216,-300.67 216,-304.33 216,-304.33 216,-311.67 216,-311.67 216,-315.33 212.33,-319 208.67,-319"/>
<text text-anchor="middle" x="108" y="-305.2" font-family="Courier,monospace" font-size="11.00"> 9 │ ↵ &#160;&#160;&#160;&#160;&#160;&#160;&#160;&#160;&#160;&#160;&#160;│ MASKED</text>
</g>
<!-- 8&#45;&gt;9 -->
<g id="edge9" class="edge">
<title>8&#45;&gt;9</title>
<path fill="none" stroke="black" d="M108,-329.85C108,-327.84 108,-325.69 108,-323.56"/>
<polygon fill="black" stroke="black" points="109.4,-323.28 108,-319.28 106.6,-323.28 109.4,-323.28"/>
</g>
<!-- 10 -->
<g id="node11" class="node">
<title>10</title>
<path fill="#b6ffb6" stroke="black" d="M208.67,-286C208.67,-286 7.33,-286 7.33,-286 3.67,-286 0,-282.33 0,-278.67 0,-278.67 0,-271.33 0,-271.33 0,-267.67 3.67,-264 7.33,-264 7.33,-264 208.67,-264 208.67,-264 212.33,-264 216,-267.67 216,-271.33 216,-271.33 216,-278.67 216,-278.67 216,-282.33 212.33,-286 208.67,-286"/>
<text text-anchor="middle" x="108" y="-272.2" font-family="Courier,monospace" font-size="11.00">10 │ Hello &#160;&#160;&#160;&#160;&#160;&#160;&#160;│ TRAIN</text>
</g>
<!-- 9&#45;&gt;10 -->
<g id="edge10" class="edge">
<title>9&#45;&gt;10</title>
<path fill="none" stroke="black" d="M108,-296.85C108,-294.84 108,-292.69 108,-290.56"/>
<polygon fill="black" stroke="black" points="109.4,-290.28 108,-286.28 106.6,-290.28 109.4,-290.28"/>
</g>
<!-- 11 -->
<g id="node12" class="node">
<title>11</title>
<path fill="#b6ffb6" stroke="black" d="M208.67,-253C208.67,-253 7.33,-253 7.33,-253 3.67,-253 0,-249.33 0,-245.67 0,-245.67 0,-238.33 0,-238.33 0,-234.67 3.67,-231 7.33,-231 7.33,-231 208.67,-231 208.67,-231 212.33,-231 216,-234.67 216,-238.33 216,-238.33 216,-245.67 216,-245.67 216,-249.33 212.33,-253 208.67,-253"/>
<text text-anchor="middle" x="108" y="-239.2" font-family="Courier,monospace" font-size="11.00">11 │ &#160;there &#160;&#160;&#160;&#160;&#160;&#160;│ TRAIN</text>
</g>
<!-- 10&#45;&gt;11 -->
<g id="edge11" class="edge">
<title>10&#45;&gt;11</title>
<path fill="none" stroke="black" d="M108,-263.85C108,-261.84 108,-259.69 108,-257.56"/>
<polygon fill="black" stroke="black" points="109.4,-257.28 108,-253.28 106.6,-257.28 109.4,-257.28"/>
</g>
<!-- 12 -->
<g id="node13" class="node">
<title>12</title>
<path fill="#b6ffb6" stroke="black" d="M208.67,-220C208.67,-220 7.33,-220 7.33,-220 3.67,-220 0,-216.33 0,-212.67 0,-212.67 0,-205.33 0,-205.33 0,-201.67 3.67,-198 7.33,-198 7.33,-198 208.67,-198 208.67,-198 212.33,-198 216,-201.67 216,-205.33 216,-205.33 216,-212.67 216,-212.67 216,-216.33 212.33,-220 208.67,-220"/>
<text text-anchor="middle" x="108" y="-206.2" font-family="Courier,monospace" font-size="11.00">12 │ . &#160;&#160;&#160;&#160;&#160;&#160;&#160;&#160;&#160;&#160;&#160;│ TRAIN</text>
</g>
<!-- 11&#45;&gt;12 -->
<g id="edge12" class="edge">
<title>11&#45;&gt;12</title>
<path fill="none" stroke="black" d="M108,-230.85C108,-228.84 108,-226.69 108,-224.56"/>
<polygon fill="black" stroke="black" points="109.4,-224.28 108,-220.28 106.6,-224.28 109.4,-224.28"/>
</g>
<!-- 13 -->
<g id="node14" class="node">
<title>13</title>
<path fill="#b6ffb6" stroke="black" d="M208.67,-187C208.67,-187 7.33,-187 7.33,-187 3.67,-187 0,-183.33 0,-179.67 0,-179.67 0,-172.33 0,-172.33 0,-168.67 3.67,-165 7.33,-165 7.33,-165 208.67,-165 208.67,-165 212.33,-165 216,-168.67 216,-172.33 216,-172.33 216,-179.67 216,-179.67 216,-183.33 212.33,-187 208.67,-187"/>
<text text-anchor="middle" x="108" y="-173.2" font-family="Courier,monospace" font-size="11.00">13 │ &#160;How &#160;&#160;&#160;&#160;&#160;&#160;&#160;&#160;│ TRAIN</text>
</g>
<!-- 12&#45;&gt;13 -->
<g id="edge13" class="edge">
<title>12&#45;&gt;13</title>
<path fill="none" stroke="black" d="M108,-197.85C108,-195.84 108,-193.69 108,-191.56"/>
<polygon fill="black" stroke="black" points="109.4,-191.28 108,-187.28 106.6,-191.28 109.4,-191.28"/>
</g>
<!-- 14 -->
<g id="node15" class="node">
<title>14</title>
<path fill="#b6ffb6" stroke="black" d="M208.67,-154C208.67,-154 7.33,-154 7.33,-154 3.67,-154 0,-150.33 0,-146.67 0,-146.67 0,-139.33 0,-139.33 0,-135.67 3.67,-132 7.33,-132 7.33,-132 208.67,-132 208.67,-132 212.33,-132 216,-135.67 216,-139.33 216,-139.33 216,-146.67 216,-146.67 216,-150.33 212.33,-154 208.67,-154"/>
<text text-anchor="middle" x="108" y="-140.2" font-family="Courier,monospace" font-size="11.00">14 │ &#160;are &#160;&#160;&#160;&#160;&#160;&#160;&#160;&#160;│ TRAIN</text>
</g>
<!-- 13&#45;&gt;14 -->
<g id="edge14" class="edge">
<title>13&#45;&gt;14</title>
<path fill="none" stroke="black" d="M108,-164.85C108,-162.84 108,-160.69 108,-158.56"/>
<polygon fill="black" stroke="black" points="109.4,-158.28 108,-154.28 106.6,-158.28 109.4,-158.28"/>
</g>
<!-- 15 -->
<g id="node16" class="node">
<title>15</title>
<path fill="#b6ffb6" stroke="black" d="M208.67,-121C208.67,-121 7.33,-121 7.33,-121 3.67,-121 0,-117.33 0,-113.67 0,-113.67 0,-106.33 0,-106.33 0,-102.67 3.67,-99 7.33,-99 7.33,-99 208.67,-99 208.67,-99 212.33,-99 216,-102.67 216,-106.33 216,-106.33 216,-113.67 216,-113.67 216,-117.33 212.33,-121 208.67,-121"/>
<text text-anchor="middle" x="108" y="-107.2" font-family="Courier,monospace" font-size="11.00">15 │ &#160;you &#160;&#160;&#160;&#160;&#160;&#160;&#160;&#160;│ TRAIN</text>
</g>
<!-- 14&#45;&gt;15 -->
<g id="edge15" class="edge">
<title>14&#45;&gt;15</title>
<path fill="none" stroke="black" d="M108,-131.85C108,-129.84 108,-127.69 108,-125.56"/>
<polygon fill="black" stroke="black" points="109.4,-125.28 108,-121.28 106.6,-125.28 109.4,-125.28"/>
</g>
<!-- 16 -->
<g id="node17" class="node">
<title>16</title>
<path fill="#b6ffb6" stroke="black" d="M208.67,-88C208.67,-88 7.33,-88 7.33,-88 3.67,-88 0,-84.33 0,-80.67 0,-80.67 0,-73.33 0,-73.33 0,-69.67 3.67,-66 7.33,-66 7.33,-66 208.67,-66 208.67,-66 212.33,-66 216,-69.67 216,-73.33 216,-73.33 216,-80.67 216,-80.67 216,-84.33 212.33,-88 208.67,-88"/>
<text text-anchor="middle" x="108" y="-74.2" font-family="Courier,monospace" font-size="11.00">16 │ !!! &#160;&#160;&#160;&#160;&#160;&#160;&#160;&#160;&#160;│ TRAIN</text>
</g>
<!-- 15&#45;&gt;16 -->
<g id="edge16" class="edge">
<title>15&#45;&gt;16</title>
<path fill="none" stroke="black" d="M108,-98.85C108,-96.84 108,-94.69 108,-92.56"/>
<polygon fill="black" stroke="black" points="109.4,-92.28 108,-88.28 106.6,-92.28 109.4,-92.28"/>
</g>
<!-- 17 -->
<g id="node18" class="node">
<title>17</title>
<path fill="#b6ffb6" stroke="black" d="M208.67,-55C208.67,-55 7.33,-55 7.33,-55 3.67,-55 0,-51.33 0,-47.67 0,-47.67 0,-40.33 0,-40.33 0,-36.67 3.67,-33 7.33,-33 7.33,-33 208.67,-33 208.67,-33 212.33,-33 216,-36.67 216,-40.33 216,-40.33 216,-47.67 216,-47.67 216,-51.33 212.33,-55 208.67,-55"/>
<text text-anchor="middle" x="108" y="-41.2" font-family="Courier,monospace" font-size="11.00">17 │ [END] &#160;&#160;&#160;&#160;&#160;&#160;&#160;│ TRAIN</text>
</g>
<!-- 16&#45;&gt;17 -->
<g id="edge17" class="edge">
<title>16&#45;&gt;17</title>
<path fill="none" stroke="black" d="M108,-65.85C108,-63.84 108,-61.69 108,-59.56"/>
<polygon fill="black" stroke="black" points="109.4,-59.28 108,-55.28 106.6,-59.28 109.4,-59.28"/>
</g>
<!-- 18 -->
<g id="node19" class="node">
<title>18</title>
<path fill="#b6ffb6" stroke="black" d="M208.67,-22C208.67,-22 7.33,-22 7.33,-22 3.67,-22 0,-18.33 0,-14.67 0,-14.67 0,-7.33 0,-7.33 0,-3.67 3.67,0 7.33,0 7.33,0 208.67,0 208.67,0 212.33,0 216,-3.67 216,-7.33 216,-7.33 216,-14.67 216,-14.67 216,-18.33 212.33,-22 208.67,-22"/>
<text text-anchor="middle" x="108" y="-8.2" font-family="Courier,monospace" font-size="11.00">18 │ ↵ &#160;&#160;&#160;&#160;&#160;&#160;&#160;&#160;&#160;&#160;&#160;│ TRAIN</text>
</g>
<!-- 17&#45;&gt;18 -->
<g id="edge18" class="edge">
<title>17&#45;&gt;18</title>
<path fill="none" stroke="black" d="M108,-32.85C108,-30.84 108,-28.69 108,-26.56"/>
<polygon fill="black" stroke="black" points="109.4,-26.28 108,-22.28 106.6,-26.28 109.4,-26.28"/>
</g>
</g>
</svg>
